<?xml version="1.0" encoding="UTF-8"?>
<svg id="Layer_1" xmlns="http://www.w3.org/2000/svg" version="1.1" viewBox="0 0 486.4 493.1">
  <!-- Generator: Adobe Illustrator 30.3.0, SVG Export Plug-In . SVG Version: 2.1.3 Build 182)  -->
  <g>
    <path d="M452.3,151.4c0,6.5-5.2,10.4-10.4,10.2-5.6-.2-9.7-4.6-9.7-10.6V53.4s-97.7,0-97.7,0c-6.1,0-10.4-4.4-10.5-9.9s4.3-10.1,10.4-10.1h107c5.8,0,10.9,3.5,10.9,9.9v108.1Z"/>
    <path d="M307.3,199.6c-4.7,4.7-11.8,3.6-15.7,0s-5.7-11.3-1.3-15.7l89.9-89.9c4.7-4.7,12-3.5,15.9.5s4.5,11.8-.4,16.7l-88.5,88.4Z"/>
  </g>
  <g>
    <path d="M334.1,446.1c-6.3,0-10-5-10-10s4.3-10.1,10.4-10.1h97.8s0-98.1,0-98.1c0-5.9,4.5-9.9,9.6-10.1s10.5,3.9,10.5,10.1v107.8c0,5.2-3.8,10.4-9.4,10.4h-108.9Z"/>
    <path d="M396.5,369c4.9,4.9,3.6,12.3-.8,16.3-4.1,3.8-11.2,4.4-15.8-.2l-89.1-89.1c-4.7-4.7-3.6-12.2.6-16.2s11.7-4.2,16.5.6l88.4,88.5Z"/>
  </g>
  <g>
    <g>
      <path d="M59.7,53.4v98.4c0,5.7-4.8,9.7-9.6,9.8s-10.4-3.8-10.4-9.8V43.2c0-6.3,5.1-9.9,10.9-9.9h106.1c6.2,0,10.8,3.5,11.2,9.6s-3.7,10.3-9.7,10.5H59.7Z"/>
      <path d="M201,183.3c4.8,4.8,3.7,11.7-.3,16-3.6,3.9-11.2,5.1-15.8.5l-89.5-89.5c-4.7-4.7-3.5-12.2.7-16.1s11.6-4.3,16.5.6l88.4,88.5Z"/>
    </g>
    <g>
      <path d="M157.9,446.1H49c-5.6,0-9.4-5.2-9.4-10.4v-107.8c0-6,4.5-9.9,9.7-10.1,5.4-.2,10.4,3.9,10.4,10.1v98.1s97.8,0,97.8,0c5.9,0,10.1,4.1,10.4,9.5s-3.4,10.6-10,10.6Z"/>
      <path d="M112.7,384.6c-4.9,4.9-11.3,4.9-16,1.1s-6.1-11.7-1.4-16.4l88.7-88.7c4.7-4.7,11.3-5.1,16.1-1.1,4.6,3.9,5.9,11.7,1.1,16.6l-88.4,88.5Z"/>
    </g>
  </g>
</svg>