<?xml version="1.0" encoding="UTF-8"?>
<svg id="Layer_1" xmlns="http://www.w3.org/2000/svg" version="1.1" viewBox="0 0 486.4 493.1">
  <!-- Generator: Adobe Illustrator 30.3.0, SVG Export Plug-In . SVG Version: 2.1.3 Build 182)  -->
  <path d="M391.3,159.2l50.7,88.2c5.2,9-3.6,21.6-11.6,26.3l-59.7,35.2,76.1,1.8c10.1.2,16.7,12.3,16.7,21.3v92.4c0,6.8-5.2,21.4-15.7,21.4H60.2c-9.2,0-16.8-14.1-16.8-22.1V50.2c0-8.6,7.8-21.8,16.5-21.8l104.3-.2c11.3,0,16.9,14.1,16.9,23.1-.1,23.2-1,42.9,1.2,67.5l33.9-57.4c6.4-10.8,19.7-17.5,31.7-10.6l80.9,47c9.8,5.7,13.1,19.5,7.8,29l-34.5,61.3,65.5-35.3c6.7-3.6,19.8-.5,23.7,6.3ZM63.2,46.1v381.6h99.1V46.1H63.2ZM182.3,355.7l139.1-240-79.4-46.5c-3.6-2.1-8.6-1.1-9.8,2.5l-44.5,76.8c-2.7,4.3-7,11.5-6.9,17l1.5,190.1ZM416.8,259.8c6.5-2.2,7.3-7.8,4.1-11.9l-45.6-78.7-94.8,55-97.4,170,233.6-134.4ZM444.7,427.6v-98.9c-.1,0-109,0-109,0l-149.2,86.1c-2.3,1.7-4.6,3.5-5.5,5.1s.8,5.9,2.2,7.8h261.6Z"/>
  <path d="M148.3,378.2c0,19.8-16.1,35.9-35.9,35.9s-35.9-16.1-35.9-35.9,16.1-35.9,35.9-35.9,35.9,16.1,35.9,35.9ZM105.5,362.8c-9.2,3.8-11.7,15.8-7.6,23.9,3.6,7,14.1,10.8,21.8,6.8,8-4.1,12-13.5,8.1-22-3.6-7.8-12.4-12.8-22.3-8.7Z"/>
</svg>