<?xml version="1.0" encoding="UTF-8"?>
<svg id="Layer_1" xmlns="http://www.w3.org/2000/svg" version="1.1" viewBox="0 0 486.4 493.1">
  <!-- Generator: Adobe Illustrator 30.3.0, SVG Export Plug-In . SVG Version: 2.1.3 Build 182)  -->
  <path d="M164.4,459.9c-7-.7-14.3-3-19.2-8l-28.3-28.4-14.8-15.2-16.7-17.2-14.5-14.9-8-9.2c-6.5-7.5-6.6-24.2-2.7-30.9s3.6-4.9,5.6-7l12.5-13.1,97-97.2,133.7-133.5,15.6-15,7.2-6.6c3.5-3.2,7-7.2,11.7-9,9.1-3.5,20.2-2.1,28.2,3.5s5.6,4.9,8.2,7.6l25.3,24.8,21.8,21.8,24.6,25.1c3.7,3.7,7.4,7.4,9.5,12.3,3.7,8.2,3.2,18.5-1.2,26.4s-5.9,6.7-8.9,9.8l-15,15.6-35.7,36.3-148.3,148.3-36.5,36-20.3,19.8-14.9,14c-5,2.2-9.8,4.4-15.9,3.8ZM206.7,285.8c-5.3,3.6-11.4,2.4-15.5-2.1-8-7.2-15.4-14.6-23.1-22.3l-20.2,20.3,19.5,19.7c2.5,3,4.8,5.7,6.8,9.1,1,4.5-.7,8.6-3.9,11.8s-7,5-11.2,3.7-4.9-2.9-7-4.6l-9.6-9.2-12.7-12.5-20.2,20.3,38.4,38.8c2.6,2.6,5.2,5.2,7,8.2,3,5.2.7,11.8-3.8,15.3s-7.8,3.5-11.5,1.6-5.7-4-8.2-6.5l-35.6-35.3-4.3-4.1c-4,4-7.6,7.6-11.3,12.5l8.7,9.8,64.3,64.3,12,11.1,4.3-3.9,17.5-17.1,41.8-41.3,121.1-120.8,52.4-52.6,27.4-27.9,9.6-10.1-5.2-6-13-13.5-54.2-54.2-10.8-9.7c-1.1-1-3.7-.9-4.8.2l-9.6,9.5,24.6,24.8,17.5,18c1.7,1.7,3.6,4.1,4.2,6.4,1.4,5-.8,10-4.7,12.8s-9.3,3.9-13.1,1.1-8.8-7.6-13.1-11.8l-33.7-33.4-20.3,20.3,17.5,17.6,8.4,9.5c2.4,6.9-1.1,13.9-7.8,16.6s-6.8,1.5-9.6-.8l-8.7-7.4-17.7-17.4-9,9-13.6,13.4,21.2,22c2.2,2.3,4.8,5.4,5.1,8.6.7,7.8-6.5,14.3-14,14.1-4.3-1.3-6.9-4.1-10.3-6.8l-20.2-20-20.3,20.3,29.4,29.6,14.3,14.7c4.8,5,3.6,14.4-2.1,18.2s-8.2,3.6-11.9,1.3-8.2-7.1-12.6-10.8l-35.2-35-20.2,20.3,18,18.2c2.8,3.1,5.4,6,7.8,9.5,1.8,5.5-.2,11.3-5.2,14.7Z"/>
</svg>